<svg width="846" height="481" viewBox="0 0 846 481" fill="none" xmlns="http://www.w3.org/2000/svg">
<g filter="url(#filter0_d_2_108)">
<path d="M383.764 155.034C395.158 155.034 405.104 157.351 413.602 161.986C422.293 166.621 428.956 172.705 433.591 180.237V157.351H483.128V318.71C483.128 333.581 480.135 347.004 474.148 358.978C468.354 371.145 459.374 380.801 447.206 387.947C435.232 395.093 420.265 398.666 402.304 398.666C378.356 398.666 358.947 392.968 344.076 381.574C329.205 370.372 320.707 355.115 318.583 335.802H367.541C369.086 341.982 372.755 346.811 378.549 350.287C384.343 353.956 391.489 355.791 399.986 355.791C410.222 355.791 418.334 352.798 424.321 346.811C430.501 341.017 433.591 331.65 433.591 318.71V295.825C428.763 303.357 422.1 309.537 413.602 314.365C405.104 319 395.158 321.318 383.764 321.318C370.438 321.318 358.367 317.938 347.552 311.178C336.737 304.226 328.143 294.473 321.769 281.919C315.589 269.173 312.499 254.495 312.499 237.886C312.499 221.277 315.589 206.696 321.769 194.142C328.143 181.589 336.737 171.932 347.552 165.173C358.367 158.413 370.438 155.034 383.764 155.034ZM433.591 238.176C433.591 225.815 430.115 216.062 423.162 208.917C416.402 201.771 408.098 198.198 398.248 198.198C388.399 198.198 379.998 201.771 373.045 208.917C366.285 215.869 362.906 225.526 362.906 237.886C362.906 250.246 366.285 260.096 373.045 267.435C379.998 274.58 388.399 278.153 398.248 278.153C408.098 278.153 416.402 274.58 423.162 267.435C430.115 260.289 433.591 250.536 433.591 238.176Z" fill="white"/>
</g>
<ellipse cx="399.509" cy="235.901" rx="41.8533" ry="45.6582" fill="white"/>
<ellipse cx="178.828" cy="235.901" rx="41.8533" ry="45.6582" fill="black"/>
<circle cx="155.999" cy="216.876" r="19.0242" fill="#787878"/>
<circle cx="155.999" cy="216.876" r="11.4145" fill="white"/>
<circle cx="155.999" cy="254.925" r="3.80485" fill="white"/>
<path d="M354.342 235.15C356.35 226.882 355.55 223.376 364.607 213.072" stroke="black" stroke-width="3.80485" stroke-linecap="round"/>
<g filter="url(#filter1_d_2_108)">
<path d="M91.818 237.886C91.818 221.277 94.908 206.696 101.088 194.142C107.461 181.589 116.056 171.932 126.871 165.173C137.686 158.413 149.757 155.034 163.082 155.034C174.477 155.034 184.423 157.351 192.921 161.986C201.612 166.621 208.275 172.705 212.91 180.237V157.351H262.447V319H212.91V296.114C208.082 303.646 201.322 309.73 192.631 314.365C184.134 319 174.187 321.318 162.793 321.318C149.66 321.318 137.686 317.938 126.871 311.178C116.056 304.226 107.461 294.473 101.088 281.919C94.908 269.173 91.818 254.495 91.818 237.886ZM212.91 238.176C212.91 225.815 209.433 216.062 202.481 208.917C195.721 201.771 187.417 198.198 177.567 198.198C167.718 198.198 159.316 201.771 152.364 208.917C145.604 215.869 142.225 225.526 142.225 237.886C142.225 250.246 145.604 260.096 152.364 267.435C159.316 274.58 167.718 278.153 177.567 278.153C187.417 278.153 195.721 274.58 202.481 267.435C209.433 260.289 212.91 250.536 212.91 238.176Z" fill="white"/>
</g>
<g filter="url(#filter2_d_2_108)">
<path d="M67.4985 326.419H132.39V364.658H17.961V161.294H67.4985V326.419Z" fill="white"/>
</g>
<g filter="url(#filter3_d_2_108)">
<path d="M566.552 278.153H636.657V319H511.22V279.602L578.429 198.198H511.8V157.351H635.209V196.749L566.552 278.153Z" fill="white"/>
</g>
<g filter="url(#filter4_d_2_108)">
<path d="M837.52 157.351L736.127 395.769H682.824L719.904 313.496L654.144 157.351H709.475L746.846 258.454L783.926 157.351H837.52Z" fill="white"/>
</g>
<path d="M357.656 251.513C368.769 237.799 396.104 210.937 416.534 213.207" stroke="black" stroke-width="3.98603" stroke-linecap="round"/>
<path d="M357.656 251.513C377.755 239.454 422.635 217.747 441.362 227.394" stroke="black" stroke-width="3.98603" stroke-linecap="round"/>
<path d="M357.656 251.513C373.499 245.365 410.434 234.772 431.431 241.582" stroke="black" stroke-width="3.98603" stroke-linecap="round"/>
<path d="M342.806 210.911C336.51 204.2 335.647 197.065 336.002 194.337C361.13 172.512 391.218 175.174 403.122 179.234C372.934 183.879 350.333 202.288 342.806 210.911Z" fill="black"/>
<path d="M195.899 185.909C195.801 174.878 190.642 167.978 188.075 165.908C148.221 167.793 124.342 195.013 117.384 208.388C147.4 187.421 182.234 184.666 195.899 185.909Z" fill="black"/>
<g filter="url(#filter5_d_2_108)">
<mask id="path-17-outside-1_2_108" maskUnits="userSpaceOnUse" x="243.525" y="209.445" width="107.509" height="108.011" fill="black">
<rect fill="white" x="243.525" y="209.445" width="107.509" height="108.011"/>
<path d="M288.657 223.399C297.115 219.594 305.09 219.328 312.58 222.6C320.118 225.747 326.042 232.11 330.351 241.691L349.336 283.895L327.327 293.795L309.682 254.568C307.508 249.735 304.568 246.543 300.861 244.994C297.155 243.444 293.187 243.62 288.958 245.523C284.729 247.425 281.964 250.277 280.665 254.078C279.365 257.88 279.803 262.197 281.977 267.03L299.622 306.258L277.484 316.216L244.989 243.975L267.127 234.017L271.436 243.597C272.244 239.395 274.139 235.533 277.121 232.012C280.065 228.405 283.91 225.534 288.657 223.399Z"/>
</mask>
<path d="M288.657 223.399C297.115 219.594 305.09 219.328 312.58 222.6C320.118 225.747 326.042 232.11 330.351 241.691L349.336 283.895L327.327 293.795L309.682 254.568C307.508 249.735 304.568 246.543 300.861 244.994C297.155 243.444 293.187 243.62 288.958 245.523C284.729 247.425 281.964 250.277 280.665 254.078C279.365 257.88 279.803 262.197 281.977 267.03L299.622 306.258L277.484 316.216L244.989 243.975L267.127 234.017L271.436 243.597C272.244 239.395 274.139 235.533 277.121 232.012C280.065 228.405 283.91 225.534 288.657 223.399Z" fill="white"/>
<path d="M312.58 222.6L312.275 223.297L312.287 223.302L312.58 222.6ZM349.336 283.895L349.648 284.589L350.342 284.277L350.03 283.583L349.336 283.895ZM327.327 293.795L326.633 294.108L326.945 294.802L327.639 294.489L327.327 293.795ZM300.861 244.994L300.568 245.696L300.861 244.994ZM280.665 254.078L281.385 254.324L280.665 254.078ZM299.622 306.258L299.934 306.952L300.628 306.639L300.316 305.945L299.622 306.258ZM277.484 316.216L276.79 316.528L277.102 317.222L277.796 316.91L277.484 316.216ZM244.989 243.975L244.677 243.281L243.983 243.593L244.295 244.287L244.989 243.975ZM267.127 234.017L267.821 233.705L267.509 233.011L266.815 233.323L267.127 234.017ZM271.436 243.597L270.742 243.91L271.73 246.104L272.184 243.741L271.436 243.597ZM277.121 232.012L277.702 232.504L277.711 232.493L277.121 232.012ZM288.657 223.399L288.969 224.093C297.261 220.363 305.009 220.123 312.276 223.297L312.58 222.6L312.885 221.902C305.17 218.532 296.97 218.825 288.345 222.705L288.657 223.399ZM312.58 222.6L312.287 223.302C319.6 226.355 325.404 232.546 329.657 242.003L330.351 241.691L331.045 241.378C326.68 231.674 320.636 225.138 312.873 221.898L312.58 222.6ZM330.351 241.691L329.657 242.003L348.642 284.208L349.336 283.895L350.03 283.583L331.045 241.378L330.351 241.691ZM349.336 283.895L349.024 283.202L327.015 293.101L327.327 293.795L327.639 294.489L349.648 284.589L349.336 283.895ZM327.327 293.795L328.021 293.483L310.376 254.256L309.682 254.568L308.988 254.88L326.633 294.108L327.327 293.795ZM309.682 254.568L310.376 254.256C308.149 249.304 305.09 245.937 301.155 244.291L300.861 244.994L300.568 245.696C304.045 247.15 306.867 250.165 308.988 254.88L309.682 254.568ZM300.861 244.994L301.155 244.291C297.223 242.648 293.034 242.854 288.646 244.829L288.958 245.523L289.27 246.216C293.339 244.386 297.086 244.24 300.568 245.696L300.861 244.994ZM288.958 245.523L288.646 244.829C284.257 246.803 281.323 249.8 279.945 253.832L280.665 254.078L281.385 254.324C282.606 250.753 285.2 248.047 289.27 246.216L288.958 245.523ZM280.665 254.078L279.945 253.832C278.565 257.868 279.056 262.391 281.283 267.342L281.977 267.03L282.671 266.718C280.55 262.003 280.166 257.891 281.385 254.324L280.665 254.078ZM281.977 267.03L281.283 267.342L298.928 306.57L299.622 306.258L300.316 305.945L282.671 266.718L281.977 267.03ZM299.622 306.258L299.31 305.564L277.172 315.522L277.484 316.216L277.796 316.91L299.934 306.952L299.622 306.258ZM277.484 316.216L278.178 315.903L245.683 243.663L244.989 243.975L244.295 244.287L276.79 316.528L277.484 316.216ZM244.989 243.975L245.301 244.669L267.439 234.711L267.127 234.017L266.815 233.323L244.677 243.281L244.989 243.975ZM267.127 234.017L266.433 234.329L270.742 243.91L271.436 243.597L272.13 243.285L267.821 233.705L267.127 234.017ZM271.436 243.597L272.184 243.741C272.965 239.677 274.797 235.933 277.702 232.504L277.121 232.012L276.541 231.52C273.48 235.133 271.523 239.113 270.689 243.454L271.436 243.597ZM277.121 232.012L277.711 232.493C280.571 228.988 284.317 226.185 288.969 224.093L288.657 223.399L288.345 222.705C283.503 224.883 279.558 227.822 276.532 231.531L277.121 232.012Z" fill="black" mask="url(#path-17-outside-1_2_108)"/>
</g>
<path d="M31.4763 382.795L20.0618 425.202H16.3261L27.7406 382.795H31.4763ZM38.6666 382.795V392.48H35.0693V382.795H38.6666ZM48.957 384.455V419.875H44.8754V384.455H48.957ZM84.2426 420.428C81.3025 420.428 78.8582 419.708 76.9097 418.267C74.9611 416.814 73.762 414.929 73.3123 412.611L74.0733 399.398C74.9381 397.392 76.189 395.818 77.8263 394.677C79.475 393.535 81.4755 392.964 83.8276 392.964C85.2111 392.964 86.5774 393.195 87.9264 393.656C89.2754 394.117 90.5033 394.867 91.6102 395.905C92.7171 396.931 93.5991 398.291 94.2563 399.986C94.9135 401.681 95.2421 403.768 95.2421 406.247V407.976H74.7651V404.448H91.0914C91.0914 402.949 90.7916 401.612 90.192 400.436C89.604 399.26 88.7623 398.332 87.667 397.651C86.5832 396.971 85.3034 396.631 83.8276 396.631C82.2019 396.631 80.7952 397.034 79.6076 397.842C78.4316 398.637 77.5265 399.681 76.8924 400.972C76.2582 402.252 75.9411 403.618 75.9411 405.071V407.423C75.9411 409.429 76.2928 411.13 76.9961 412.525C77.6994 413.908 78.6737 414.963 79.9189 415.69C81.1642 416.405 82.6054 416.762 84.2426 416.762C85.3149 416.762 86.2834 416.612 87.1482 416.312C88.0244 416.001 88.7796 415.54 89.4138 414.929C90.0479 414.306 90.5379 413.534 90.8838 412.611L94.827 413.718C94.412 415.056 93.7144 416.232 92.7344 417.246C91.7543 418.249 90.5437 419.033 89.1025 419.598C87.6612 420.152 86.0413 420.428 84.2426 420.428ZM64.8725 416.831C66.4867 416.831 67.8472 416.514 68.9541 415.88C70.0725 415.246 70.9141 414.427 71.4791 413.424C72.0556 412.421 72.3438 411.366 72.3438 410.259V406.524C72.1709 406.731 71.7904 406.921 71.2024 407.094C70.6259 407.256 69.9572 407.4 69.1962 407.527C68.4468 407.642 67.7146 407.746 66.9998 407.838C66.2964 407.919 65.7257 407.988 65.2876 408.045C64.2268 408.184 63.2353 408.409 62.3129 408.72C61.402 409.02 60.6641 409.475 60.0991 410.086C59.5457 410.686 59.269 411.504 59.269 412.542C59.269 413.96 59.7936 415.033 60.8428 415.759C61.9036 416.474 63.2468 416.831 64.8725 416.831ZM64.2499 420.498C62.5665 420.498 61.0388 420.181 59.6668 419.546C58.2947 418.901 57.2052 417.973 56.3981 416.762C55.591 415.54 55.1874 414.064 55.1874 412.335C55.1874 410.813 55.4872 409.579 56.0868 408.633C56.6978 407.676 57.4992 406.927 58.4907 406.385C59.4938 405.832 60.6065 405.422 61.8286 405.157C63.0508 404.881 64.2729 404.667 65.4951 404.517C67.1093 404.31 68.4179 404.148 69.421 404.033C70.4356 403.918 71.1736 403.728 71.6348 403.462C72.1075 403.197 72.3438 402.742 72.3438 402.096V401.958C72.3438 400.263 71.8769 398.943 70.943 397.997C70.009 397.04 68.6082 396.562 66.7403 396.562C64.8033 396.562 63.2756 396.988 62.1572 397.842C61.0504 398.695 60.2721 399.606 59.8224 400.574L55.9484 399.191C56.6402 397.576 57.5626 396.32 58.7156 395.42C59.8801 394.509 61.1484 393.875 62.5204 393.518C63.904 393.149 65.2645 392.964 66.602 392.964C67.3168 392.964 68.1239 393.034 69.0232 393.172C69.9226 393.299 70.8277 393.558 71.7385 393.95C72.6494 394.342 73.4795 394.924 74.229 395.697C74.9784 396.469 75.5491 397.496 75.9411 398.775L74.35 415.033H74.0041C73.6582 416.024 73.0068 416.935 72.0498 417.765C71.1044 418.595 69.9514 419.258 68.5909 419.754C67.2419 420.25 65.7949 420.498 64.2499 420.498ZM118.421 419.875H122.503V422.711C122.503 424.233 122.192 425.525 121.569 426.585C120.958 427.646 120.128 428.453 119.079 429.007C118.041 429.56 116.876 429.837 115.585 429.837C115.17 429.837 114.749 429.825 114.323 429.802C113.907 429.791 113.544 429.733 113.233 429.629V426.17C113.406 426.205 113.608 426.234 113.838 426.257C114.069 426.291 114.305 426.309 114.547 426.309C115.654 426.309 116.577 426.055 117.315 425.548C118.052 425.04 118.421 424.095 118.421 422.711V419.875ZM105.554 403.895V419.875H101.473V393.31H105.416V397.461H105.762C106.384 396.112 107.33 395.028 108.598 394.21C109.866 393.379 111.504 392.964 113.51 392.964C115.308 392.964 116.882 393.333 118.231 394.071C119.58 394.798 120.629 395.905 121.379 397.392C122.128 398.868 122.503 400.736 122.503 402.995V419.875H118.421V403.272C118.421 401.185 117.88 399.559 116.796 398.395C115.712 397.219 114.225 396.631 112.334 396.631C111.031 396.631 109.866 396.913 108.84 397.478C107.825 398.043 107.024 398.868 106.436 399.951C105.848 401.035 105.554 402.35 105.554 403.895ZM132.936 420.152C132.083 420.152 131.351 419.846 130.74 419.235C130.129 418.624 129.823 417.892 129.823 417.039C129.823 416.186 130.129 415.453 130.74 414.842C131.351 414.231 132.083 413.926 132.936 413.926C133.789 413.926 134.521 414.231 135.132 414.842C135.744 415.453 136.049 416.186 136.049 417.039C136.049 417.604 135.905 418.123 135.617 418.595C135.34 419.068 134.965 419.448 134.493 419.737C134.031 420.013 133.513 420.152 132.936 420.152ZM142.612 419.875V416.762L157.693 397.392V397.115H143.097V393.31H162.951V396.562L148.285 415.793V416.07H163.435V419.875H142.612ZM169.722 419.875V393.31H173.804V419.875H169.722ZM171.797 388.883C171.002 388.883 170.316 388.612 169.739 388.07C169.174 387.528 168.892 386.877 168.892 386.116C168.892 385.355 169.174 384.703 169.739 384.161C170.316 383.619 171.002 383.349 171.797 383.349C172.593 383.349 173.273 383.619 173.838 384.161C174.415 384.703 174.703 385.355 174.703 386.116C174.703 386.877 174.415 387.528 173.838 388.07C173.273 388.612 172.593 388.883 171.797 388.883ZM193.801 382.795L182.386 425.202H178.65L190.065 382.795H193.801Z" fill="#255777"/>
<defs>
<filter id="filter0_d_2_108" x="312.499" y="155.034" width="178.239" height="251.242" filterUnits="userSpaceOnUse" color-interpolation-filters="sRGB">
<feFlood flood-opacity="0" result="BackgroundImageFix"/>
<feColorMatrix in="SourceAlpha" type="matrix" values="0 0 0 0 0 0 0 0 0 0 0 0 0 0 0 0 0 0 127 0" result="hardAlpha"/>
<feOffset dx="7.6097" dy="7.6097"/>
<feComposite in2="hardAlpha" operator="out"/>
<feColorMatrix type="matrix" values="0 0 0 0 0 0 0 0 0 0 0 0 0 0 0 0 0 0 0.25 0"/>
<feBlend mode="normal" in2="BackgroundImageFix" result="effect1_dropShadow_2_108"/>
<feBlend mode="normal" in="SourceGraphic" in2="effect1_dropShadow_2_108" result="shape"/>
</filter>
<filter id="filter1_d_2_108" x="91.8179" y="155.034" width="178.239" height="173.894" filterUnits="userSpaceOnUse" color-interpolation-filters="sRGB">
<feFlood flood-opacity="0" result="BackgroundImageFix"/>
<feColorMatrix in="SourceAlpha" type="matrix" values="0 0 0 0 0 0 0 0 0 0 0 0 0 0 0 0 0 0 127 0" result="hardAlpha"/>
<feOffset dx="7.6097" dy="7.6097"/>
<feComposite in2="hardAlpha" operator="out"/>
<feColorMatrix type="matrix" values="0 0 0 0 0 0 0 0 0 0 0 0 0 0 0 0 0 0 0.25 0"/>
<feBlend mode="normal" in2="BackgroundImageFix" result="effect1_dropShadow_2_108"/>
<feBlend mode="normal" in="SourceGraphic" in2="effect1_dropShadow_2_108" result="shape"/>
</filter>
<filter id="filter2_d_2_108" x="17.9609" y="161.294" width="122.038" height="210.974" filterUnits="userSpaceOnUse" color-interpolation-filters="sRGB">
<feFlood flood-opacity="0" result="BackgroundImageFix"/>
<feColorMatrix in="SourceAlpha" type="matrix" values="0 0 0 0 0 0 0 0 0 0 0 0 0 0 0 0 0 0 127 0" result="hardAlpha"/>
<feOffset dx="7.6097" dy="7.6097"/>
<feComposite in2="hardAlpha" operator="out"/>
<feColorMatrix type="matrix" values="0 0 0 0 0 0 0 0 0 0 0 0 0 0 0 0 0 0 0.25 0"/>
<feBlend mode="normal" in2="BackgroundImageFix" result="effect1_dropShadow_2_108"/>
<feBlend mode="normal" in="SourceGraphic" in2="effect1_dropShadow_2_108" result="shape"/>
</filter>
<filter id="filter3_d_2_108" x="511.22" y="157.351" width="133.047" height="169.258" filterUnits="userSpaceOnUse" color-interpolation-filters="sRGB">
<feFlood flood-opacity="0" result="BackgroundImageFix"/>
<feColorMatrix in="SourceAlpha" type="matrix" values="0 0 0 0 0 0 0 0 0 0 0 0 0 0 0 0 0 0 127 0" result="hardAlpha"/>
<feOffset dx="7.6097" dy="7.6097"/>
<feComposite in2="hardAlpha" operator="out"/>
<feColorMatrix type="matrix" values="0 0 0 0 0 0 0 0 0 0 0 0 0 0 0 0 0 0 0.25 0"/>
<feBlend mode="normal" in2="BackgroundImageFix" result="effect1_dropShadow_2_108"/>
<feBlend mode="normal" in="SourceGraphic" in2="effect1_dropShadow_2_108" result="shape"/>
</filter>
<filter id="filter4_d_2_108" x="654.144" y="157.351" width="190.985" height="246.027" filterUnits="userSpaceOnUse" color-interpolation-filters="sRGB">
<feFlood flood-opacity="0" result="BackgroundImageFix"/>
<feColorMatrix in="SourceAlpha" type="matrix" values="0 0 0 0 0 0 0 0 0 0 0 0 0 0 0 0 0 0 127 0" result="hardAlpha"/>
<feOffset dx="7.6097" dy="7.6097"/>
<feComposite in2="hardAlpha" operator="out"/>
<feColorMatrix type="matrix" values="0 0 0 0 0 0 0 0 0 0 0 0 0 0 0 0 0 0 0.25 0"/>
<feBlend mode="normal" in2="BackgroundImageFix" result="effect1_dropShadow_2_108"/>
<feBlend mode="normal" in="SourceGraphic" in2="effect1_dropShadow_2_108" result="shape"/>
</filter>
<filter id="filter5_d_2_108" x="243.983" y="219.569" width="110.088" height="101.381" filterUnits="userSpaceOnUse" color-interpolation-filters="sRGB">
<feFlood flood-opacity="0" result="BackgroundImageFix"/>
<feColorMatrix in="SourceAlpha" type="matrix" values="0 0 0 0 0 0 0 0 0 0 0 0 0 0 0 0 0 0 127 0" result="hardAlpha"/>
<feOffset dx="3.72896" dy="3.72896"/>
<feComposite in2="hardAlpha" operator="out"/>
<feColorMatrix type="matrix" values="0 0 0 0 0 0 0 0 0 0 0 0 0 0 0 0 0 0 1 0"/>
<feBlend mode="normal" in2="BackgroundImageFix" result="effect1_dropShadow_2_108"/>
<feBlend mode="normal" in="SourceGraphic" in2="effect1_dropShadow_2_108" result="shape"/>
</filter>
</defs>
</svg>
